<svg width="30" height="8" viewBox="0 0 30 8" fill="none" xmlns="http://www.w3.org/2000/svg">
<path d="M4.99451 6.26978H2.72693L2.41492 7.33325H0.380249L2.80164 0.890869H4.97253L7.39392 7.33325H5.31091L4.99451 6.26978ZM4.57703 4.87671L3.86511 2.56079L3.15759 4.87671H4.57703ZM8.01355 0.890869H10.6327L11.6434 4.81079L12.6498 0.890869H15.2601V7.33325H13.6342V2.42017L12.3729 7.33325H10.9008L9.64392 2.42017V7.33325H8.01355V0.890869ZM16.5302 0.890869H21.8651V2.26636H18.5253V3.29028H21.6234V4.60425H18.5253V5.87427H21.9618V7.33325H16.5302V0.890869ZM22.5946 0.890869H24.7875L25.9301 2.8728L27.0375 0.890869H29.2084L27.2045 4.01099L29.3973 7.33325H27.1605L25.8905 5.26343L24.6161 7.33325H22.3925L24.6161 3.97583L22.5946 0.890869Z" fill="#006ED6"/>
</svg>
