<svg width="109" height="134" viewBox="0 0 109 134" fill="none" xmlns="http://www.w3.org/2000/svg">
<path d="M29.2302 132.188C29.2132 133.016 29.8708 133.701 30.6991 133.718L44.1962 133.996C45.0245 134.013 45.7097 133.355 45.7267 132.527C45.7438 131.699 45.0861 131.013 44.2579 130.996L32.2604 130.75L32.5069 118.752C32.5239 117.924 31.8663 117.239 31.038 117.222C30.2098 117.205 29.5246 117.863 29.5076 118.691L29.2302 132.188ZM102.447 1.21875C101.024 1.69513 101.024 1.69488 101.024 1.6948C101.024 1.69497 101.024 1.69503 101.024 1.69538C101.025 1.69607 101.025 1.69737 101.026 1.69928C101.027 1.70309 101.029 1.70931 101.032 1.71792C101.038 1.73514 101.046 1.76191 101.058 1.79798C101.081 1.87013 101.117 1.97949 101.162 2.12417C101.253 2.41354 101.385 2.84411 101.547 3.40072C101.871 4.51416 102.315 6.1307 102.789 8.12946C103.738 12.1308 104.801 17.6447 105.271 23.7094C106.219 35.9469 104.712 49.9326 95.5951 58.5544L97.6564 60.7341C107.821 51.1212 109.224 35.8941 108.262 23.4776C107.777 17.2153 106.681 11.5418 105.708 7.43751C105.221 5.38346 104.764 3.71763 104.428 2.56191C104.259 1.98394 104.121 1.53322 104.024 1.22496C103.976 1.07082 103.938 0.952276 103.911 0.871219C103.898 0.830689 103.888 0.799529 103.881 0.777977C103.877 0.767201 103.874 0.758826 103.873 0.752882C103.872 0.74991 103.871 0.747546 103.87 0.745794C103.87 0.744918 103.87 0.744062 103.869 0.743624C103.869 0.742923 103.869 0.742374 102.447 1.21875ZM95.5951 58.5544C90.9489 62.9483 83.4515 67.5141 74.6016 71.3763C65.771 75.2301 55.6963 78.3388 45.9611 79.8734C36.203 81.4117 26.9129 81.3485 19.5804 78.982C12.3164 76.6377 7.02293 72.064 4.93785 64.4704L2.04492 65.2648C4.44883 74.0194 10.6315 79.2463 18.659 81.8371C26.6181 84.4057 36.4352 84.4121 46.4282 82.8368C56.4442 81.2579 66.7646 78.0698 75.8015 74.1259C84.8192 70.1904 92.6617 65.4576 97.6564 60.7341L95.5951 58.5544ZM4.93785 64.4704C2.75924 56.5362 3.06441 49.9981 4.91445 44.8308C6.76329 39.6669 10.1901 35.771 14.4345 33.1637C22.975 27.9174 34.7876 27.9172 43.4305 33.4353L45.0449 30.9067C35.4252 24.765 22.3757 24.7647 12.8642 30.6075C8.08251 33.5448 4.18589 37.9657 2.09002 43.8196C-0.00465715 49.6701 -0.265455 56.8507 2.04492 65.2648L4.93785 64.4704ZM43.4305 33.4353C51.9024 38.8443 55.6899 50.3976 55.7709 63.8808C55.8513 77.2804 52.2512 92.091 46.5384 103.338L49.2131 104.696C55.1421 93.024 58.8542 77.7415 58.7708 63.8628C58.688 50.0678 54.8355 37.1577 45.0449 30.9067L43.4305 33.4353ZM46.5384 103.338C40.7385 114.756 36.4831 121.75 33.6947 125.872C32.3009 127.933 31.2761 129.272 30.6107 130.086C30.2781 130.492 30.0359 130.767 29.8828 130.934C29.8063 131.018 29.7522 131.074 29.7203 131.107C29.7043 131.123 29.6939 131.134 29.6891 131.139C29.6867 131.141 29.6857 131.142 29.686 131.142C29.6862 131.141 29.6867 131.141 29.6876 131.14C29.688 131.14 29.6886 131.139 29.6892 131.139C29.6895 131.138 29.69 131.138 29.6901 131.138C29.6907 131.137 29.6913 131.137 30.7299 132.219C31.7686 133.301 31.7692 133.3 31.7698 133.3C31.77 133.3 31.7707 133.299 31.7711 133.298C31.7721 133.298 31.7731 133.297 31.7742 133.296C31.7764 133.293 31.779 133.291 31.7819 133.288C31.7876 133.282 31.7946 133.276 31.803 133.267C31.8197 133.251 31.8416 133.229 31.8688 133.201C31.9232 133.145 31.9987 133.066 32.0955 132.96C32.2889 132.749 32.5676 132.432 32.9329 131.985C33.6634 131.092 34.7421 129.678 36.1796 127.553C39.0537 123.304 43.3711 116.198 49.2131 104.696L46.5384 103.338Z" fill="#442E74"/>
</svg>
