<svg width="17" height="16" viewBox="0 0 17 16" fill="none" xmlns="http://www.w3.org/2000/svg">
<path d="M16.9688 8C16.9688 9.15625 16.4062 10.1562 15.5 10.7188C15.7188 11.75 15.4375 12.875 14.625 13.6562C13.8438 14.4688 12.7188 14.7812 11.6875 14.5625C11.0938 15.4375 10.125 16 8.96875 16C7.84375 16 6.84375 15.4375 6.25 14.5625C5.21875 14.7812 4.125 14.4688 3.3125 13.6562C2.53125 12.875 2.21875 11.75 2.4375 10.7188C1.5625 10.1562 0.96875 9.15625 0.96875 8C0.96875 6.875 1.5625 5.875 2.4375 5.3125C2.21875 4.28125 2.53125 3.15625 3.3125 2.34375C4.125 1.5625 5.25 1.25 6.25 1.46875C6.84375 0.59375 7.84375 0 8.96875 0C10.125 0 11.0938 0.59375 11.6875 1.46875C12.7188 1.25 13.8438 1.5625 14.625 2.34375C15.4375 3.15625 15.7188 4.28125 15.5 5.3125C16.375 5.875 16.9688 6.875 16.9688 8ZM12 6.78125C12.3125 6.5 12.3125 6.03125 12 5.75C11.7188 5.4375 11.25 5.4375 10.9688 5.75L8 8.71875L7 7.75C6.71875 7.4375 6.25 7.4375 5.96875 7.75C5.65625 8.03125 5.65625 8.5 5.96875 8.78125L7.46875 10.2812C7.59375 10.4375 7.78125 10.5 8 10.5C8.1875 10.5 8.375 10.4375 8.5 10.2812L12 6.78125Z" fill="#B18FFF"/>
</svg>
