<svg width="39" height="13" viewBox="0 0 39 13" fill="none" xmlns="http://www.w3.org/2000/svg">
<path fill-rule="evenodd" clip-rule="evenodd" d="M22.5946 9.77572C21.4184 9.77572 20.7735 9.61641 19.7831 9.21434L19.4161 9.04897L19 11.4386C19.7155 11.7299 21.0053 11.9803 22.3397 12C25.4736 12 27.5219 10.5632 27.5465 8.35255C27.571 7.13724 26.7634 6.21476 25.0575 5.45462C24.0225 4.96152 23.3776 4.63076 23.3776 4.13007C23.3776 3.68703 23.9289 3.21517 25.0805 3.21517C26.0709 3.2 26.7634 3.40786 27.3146 3.62331L27.591 3.74469L28.0071 1.43545L27.9349 1.45062C27.3407 1.23214 26.4148 1 25.2632 1C22.3151 1 20.2345 2.44745 20.2192 4.52152C20.2007 6.04634 21.6994 6.9051 22.831 7.41641C23.9934 7.93986 24.3818 8.2691 24.3788 8.73945C24.3711 9.45407 23.4498 9.77572 22.5946 9.77572ZM35.5862 1.19572H33.283C32.5659 1.19572 32.0301 1.38538 31.7153 2.08028L27.2854 11.8513H30.4193L31.0458 10.2521L34.8692 10.2552C34.9628 10.6284 35.2377 11.8513 35.2377 11.8513H38L35.5862 1.19572ZM33.0926 5.08745L31.9042 8.06579H34.3824L33.693 4.99035L33.4888 4.0709C33.3972 4.3146 33.2647 4.64929 33.1785 4.8672C33.123 5.00745 33.0866 5.09933 33.0926 5.08745Z" fill="#191E6E"/>
<path d="M13 12H16.6923L19 1.00313H15.3096V1L13 12Z" fill="#191E6E"/>
<path d="M7.75887 8.51411L7.4405 6.98433V6.98903L6.36564 1.9326C6.18124 1.23197 5.64224 1.02508 4.974 1H0.0394011L0 1.23197C1.11111 1.4906 2.1119 1.8652 3.00709 2.32445C3.16785 2.4232 3.23562 2.53135 3.29078 2.69122L5.93853 12H9.17573L14 1.00784H10.7549L7.75887 8.51411Z" fill="#191E6E"/>
</svg>
